<svg id="tattoos" width="360px" height="360px" viewBox="0 0 360 360" style="z-index: 90">
    <g id="t_krilin">
        <path fill="#000000" fill-opacity="0.7" d="M191 71c3,0 6,3 6,7 0,3 -3,6 -6,6 -4,0 -6,-3 -6,-6 0,-4 2,-7 6,-7zm0 32c3,0 6,3 6,7 0,3 -3,6 -6,6 -4,0 -6,-3 -6,-6 0,-4 2,-7 6,-7zm-22 0c4,0 6,3 6,7 0,3 -2,6 -6,6 -3,0 -6,-3 -6,-6 0,-4 3,-7 6,-7zm22 -16c3,0 6,3 6,7 0,3 -3,6 -6,6 -4,0 -6,-3 -6,-6 0,-4 2,-7 6,-7zm-22 0c4,0 6,3 6,7 0,3 -2,6 -6,6 -3,0 -6,-3 -6,-6 0,-4 3,-7 6,-7zm0 -16c4,0 6,3 6,7 0,3 -2,6 -6,6 -3,0 -6,-3 -6,-6 0,-4 3,-7 6,-7z"/>
    </g>
</svg>