<svg id="tattoos" width="360px" height="360px" viewBox="0 0 360 360" style="z-index: 90">
    <g id="t_tribal">
        <path fill="#000000" fill-opacity="0.7" d="M123 210c1,0 3,-1 6,0 2,0 5,1 7,3 1,1 1,2 2,3 0,1 0,2 0,3 -1,1 -2,1 -4,1 2,1 5,1 8,1 3,0 6,-1 10,-3 4,-1 8,-4 12,-9 1,-1 2,-2 3,-3 -2,1 -5,2 -9,3 -4,0 -9,0 -14,-2 -12,-4 -19,1 -21,3zm-10 -19c1,5 2,10 5,15 0,-1 0,-1 0,-1 0,0 0,0 0,0 1,-1 2,-2 3,-3 2,0 3,-1 5,-2 5,-2 10,-2 14,-1 5,1 9,3 11,4 0,0 -1,-1 -2,-1 -11,-10 -24,-13 -36,-11zm15 30c4,6 10,10 16,14 1,0 1,0 2,-1 6,-2 11,-6 15,-10 2,-2 4,-5 5,-7 1,-2 2,-4 2,-5 0,0 -1,1 -1,1 0,0 0,0 0,0 -10,11 -19,14 -26,14 -4,-1 -7,-2 -9,-3 -2,-1 -3,-2 -4,-3z"/>
        <path fill="#000000" fill-opacity="0.7" d="M237 210c-1,0 -3,-1 -6,0 -2,0 -5,1 -7,3 -1,1 -1,2 -2,3 0,1 0,2 0,3 1,1 2,1 4,1 -2,1 -5,1 -8,1 -3,0 -6,-1 -10,-3 -4,-1 -8,-4 -12,-9 -1,-1 -2,-2 -3,-3 2,1 5,2 9,3 4,0 9,0 14,-2 12,-4 19,1 21,3zm-21 25c6,-4 12,-8 16,-14 -1,1 -2,2 -4,3 -2,1 -5,2 -9,3 -7,0 -16,-3 -26,-14 0,0 0,0 0,0 0,0 -1,-1 -1,-1 0,1 1,3 2,5 1,2 3,5 5,7 4,4 9,8 15,10 1,1 1,1 2,1zm26 -29c3,-5 4,-10 5,-15 -12,-2 -25,1 -36,11 -1,0 -2,1 -2,1 2,-1 6,-3 11,-4 4,-1 9,-1 14,1 2,1 3,2 5,2 1,1 2,2 3,3 0,0 0,0 0,0 0,0 0,0 0,1z"/>
    </g>
</svg>