<svg id="facialhair2" width="360px" height="360px" viewBox="0 0 360 360" style="z-index: 130">

    <g id="f_light">
        <path class="tinted" fill="#6f2912" d="M174 183c-5,0 -7,0 -12,0 -6,0 -12,7 -15,13 -3,4 -4,10 -10,8 -14,-2 -20,-19 -20,-36l0 -27c0,-4 -3,-6 -6,-6 0,15 0,30 0,45 0,41 31,66 69,66 38,0 69,-25 69,-66 0,-15 0,-30 0,-45 -3,0 -6,2 -6,6l0 27c0,17 -6,34 -20,36 -6,2 -7,-4 -10,-8 -3,-6 -9,-13 -15,-13 -5,0 -7,0 -12,0 -3,0 -6,2 -6,5 0,3 3,6 6,6 5,0 8,-1 14,0 7,0 10,9 9,14 0,6 -3,12 -6,16 -3,3 -7,5 -11,5 -5,0 -5,-6 -12,-6 -7,0 -7,6 -12,6 -4,0 -8,-2 -11,-5 -3,-4 -6,-10 -6,-16 -1,-5 2,-14 9,-14 6,-1 9,0 14,0 3,0 6,-3 6,-6 0,-3 -3,-5 -6,-5z"/>
    </g>
</svg>