<svg viewBox="0 0 280 280">
    <g id="eb_angry">
        <path fill="#000000" fill-opacity="0.7" fill-rule="nonzero" d="M127 130c-2,1 -3,1 -4,-1 -1,-1 -1,-3 1,-3 1,-1 2,-2 3,-3 3,-3 6,-5 10,-5 3,-1 5,0 8,2 2,1 4,3 6,5 2,1 3,3 5,3 1,1 3,1 5,1 1,0 3,0 3,2 0,1 -1,3 -2,3 -3,1 -6,0 -8,-1 -3,-1 -5,-2 -7,-4 -1,-2 -3,-3 -5,-5 -1,-1 -3,-1 -5,-1 -2,0 -4,2 -6,4 -2,1 -3,2 -4,3z"/>
        <path fill="#000000" fill-opacity="0.7" fill-rule="nonzero" d="M233 130c1,1 3,1 4,-1 1,-1 0,-3 -1,-3 -1,-1 -2,-2 -3,-3 -3,-3 -6,-5 -10,-5 -3,-1 -6,0 -8,2 -2,1 -5,3 -6,5 -2,1 -3,3 -5,3 -2,1 -3,1 -5,1 -1,0 -3,0 -3,2 0,1 0,3 2,3 3,1 5,0 8,-1 2,-1 4,-2 6,-4 2,-2 4,-3 6,-5 1,-1 3,-1 5,-1 2,0 4,2 6,4 1,1 3,2 4,3z"/>
    </g>
</svg>