<svg id="hair" width="360px" height="360px" viewBox="0 0 360 360" style="z-index: 120">
    <g id="h_longhairstraight2">
        <path fill="#000000" fill-opacity="0.2" d="M249 136l0 -8c0,-38 -31,-69 -69,-69l0 0c-38,0 -69,31 -69,69l0 8c17,-11 34,-19 41,-22 11,-4 21,-8 31,-12 8,-4 16,-8 23,-13 1,1 3,1 4,2 7,5 14,9 20,16 1,2 19,29 19,29z"/>
        <path class="tinted" fill="#bb7748" d="M261 147c1,-27 3,-58 -1,-69 -6,-19 -26,-39 -53,-33 -5,-8 -22,-18 -47,-13 -31,7 -68,38 -69,80 -1,27 -1,56 -2,84 1,-22 6,-45 22,-60 25,-25 73,-32 94,-52 16,11 33,18 44,52l0 0c6,1 11,5 12,11z"/>
    </g>
</svg>