<svg id="hair" width="360px" height="360px" viewBox="0 0 360 360" style="z-index: 120">
    <g id="h_nottoolong">
        <path fill="#000000" fill-opacity="0.2" d="M261 146c-1,-2 -2,-3 -3,-5 -21,-8 -40,-22 -54,-54 -6,14 -18,26 -34,31 7,-7 13,-15 14,-25 -28,25 -55,40 -80,46 -2,2 -3,3 -4,5 28,-6 54,-21 76,-39 -3,4 -5,7 -9,10l-11 11 15 -5c14,-4 25,-14 33,-26 7,14 16,26 28,36 9,7 19,12 29,15z"/>
        <path class="tinted" fill="#bb7748" d="M272 146c0,-6 0,-12 0,-18 0,-51 -42,-93 -93,-93l0 0c-44,0 -82,32 -90,75 0,0 -1,0 -1,0 -7,0 -13,7 -13,16 0,7 4,15 12,16 31,-2 63,-19 97,-49 -1,10 -7,18 -14,25 16,-5 28,-17 34,-31 16,39 42,51 68,59z"/>
    </g>
</svg>