<svg id="hair" width="360px" height="360px" viewBox="0 0 360 360" style="z-index: 120">
    <g id="h_shorthaircurly">
        <path class="tinted" fill="#bb7748" d="M205 73c-8,5 -21,9 -38,9 -11,1 -34,-3 -33,-3 -16,14 -23,32 -23,57 -1,0 -3,1 -4,1 -2,-8 -3,-10 -3,-23 0,-12 5,-32 12,-45 -4,-4 -6,-8 -6,-14 0,-10 9,-19 21,-19 1,0 2,1 4,1 7,-7 23,-12 41,-12 21,0 39,6 44,15 1,0 2,-1 4,-1 6,0 10,4 10,8 0,1 0,2 0,3 1,-1 2,-1 3,-1 7,0 13,7 13,13 0,5 0,6 -4,9 12,16 11,47 6,66 -1,0 -1,-1 -3,-1 0,-6 1,-10 -2,-14 -6,-8 -10,-17 -12,-26 -6,-4 -14,-8 -15,-15 -4,-4 -12,-5 -15,-8z"/>
    </g>
</svg>