<svg viewBox="0 0 180 180">
    <g id="g_fancy2">
        <path fill="#00A0E3" d="M90 105c3,0 10,-5 17,-9 1,-1 2,-1 3,-2 1,-1 1,-1 2,-1 10,-4 27,-4 41,-3 9,0 11,-2 10,16 0,8 -1,16 -7,22 -9,8 -24,8 -35,7 -7,0 -13,-3 -18,-7 -3,-3 -5,-7 -6,-12l0 0c-1,-3 -4,-6 -7,-6l0 -5zm57 -10c-60,-10 -55,34 -26,37 34,2 40,-13 38,-24 -2,-8 -8,-12 -12,-13z"/>
        <path fill="#00A0E3" d="M90 105c-3,0 -10,-5 -17,-9 -1,-1 -2,-1 -3,-2 -1,-1 -1,-1 -2,-1 -10,-4 -27,-4 -41,-3 -9,0 -11,-2 -10,16 0,8 1,16 7,22 9,8 24,8 35,7 7,0 13,-3 18,-7 3,-3 5,-7 6,-12l0 0c1,-3 4,-6 7,-6l0 -5zm-57 -10c60,-10 55,34 26,37 -34,2 -40,-13 -38,-24 2,-8 8,-12 12,-13z"/>
        <path class="glass" fill-opacity="0.5" fill="#5B5B5B" d="M33 95c60,-10 55,34 26,37 -34,2 -40,-13 -38,-24 2,-8 8,-12 12,-13zm114 0c-60,-10 -55,34 -26,37 34,2 40,-13 38,-24 -2,-8 -8,-12 -12,-13z"/>
    </g>
</svg>