<svg viewBox="0 0 180 180">
    <g id="g_harry">
        <path fill="#2B2A29" fill-rule="nonzero" d="M53 85c7,0 14,3 19,8 4,4 6,8 7,13 1,-1 2,-1 3,-2 2,-2 5,-4 8,-4 3,0 6,2 8,4 1,1 2,1 3,2 1,-5 3,-9 7,-13 5,-5 12,-8 19,-8 8,0 15,3 20,8 4,5 7,11 8,18l4 0c1,0 2,1 2,1 0,1 -1,2 -2,2l-4 0c-1,7 -4,13 -8,18 -5,5 -12,8 -20,8 -7,0 -14,-3 -19,-8 -5,-5 -8,-12 -8,-19 -1,-3 -2,-5 -4,-7 -2,-1 -4,-2 -6,-2 -2,0 -4,1 -6,2 -2,2 -3,4 -4,7 0,7 -3,14 -8,19 -5,5 -12,8 -19,8 -8,0 -15,-3 -20,-8 -4,-5 -7,-11 -8,-18l-4 0c-1,0 -2,-1 -2,-2 0,0 1,-1 2,-1l4 0c1,-7 4,-13 8,-18 5,-5 12,-8 20,-8zm91 11c-4,-5 -10,-8 -17,-8 -6,0 -12,3 -17,8 -4,4 -7,10 -7,16 0,7 3,13 7,17 5,5 11,7 17,7 7,0 13,-2 17,-7 5,-4 7,-10 7,-17 0,-6 -2,-12 -7,-16zm-74 0c-5,-5 -11,-8 -17,-8 -7,0 -13,3 -17,8 -5,4 -7,10 -7,16 0,7 2,13 7,17 4,5 10,7 17,7 6,0 12,-2 17,-7 4,-4 7,-10 7,-17 0,-6 -3,-12 -7,-16z"/>
        <path class="glass" fill-opacity="0.5" fill="#5B5B5B" d="M144 96c-4,-5 -10,-8 -17,-8 -6,0 -12,3 -17,8 -4,4 -7,10 -7,16 0,7 3,13 7,17 5,5 11,7 17,7 7,0 13,-2 17,-7 5,-4 7,-10 7,-17 0,-6 -2,-12 -7,-16zm-74 0c-5,-5 -11,-8 -17,-8 -7,0 -13,3 -17,8 -5,4 -7,10 -7,16 0,7 2,13 7,17 4,5 10,7 17,7 6,0 12,-2 17,-7 4,-4 7,-10 7,-17 0,-6 -3,-12 -7,-16z"/>
    </g>
</svg>