<svg viewBox="0 0 180 180">
    <g id="g_nerd">
        <path fill="#CC6F3C" d="M51 81c10,0 19,4 26,12 2,2 5,3 8,3l5 0 0 13c-3,0 -4,0 -5,2 -1,1 -2,5 -4,9 0,1 -1,1 -2,1 -1,6 -4,11 -8,15 -5,5 -12,8 -20,8 -8,0 -15,-3 -20,-8 -6,-6 -9,-13 -9,-21l0 0c-2,0 -5,-2 -5,-5 0,0 0,-1 0,-1l0 0 1 0 0 0c0,-5 -3,-7 -4,-7 -2,0 -3,-1 -3,-3 0,-2 0,-4 0,-6 0,-1 1,-3 3,-3 2,0 4,0 6,0 5,0 14,-5 15,-5 5,-2 10,-4 16,-4zm19 16c-5,-5 -12,-8 -19,-8 -7,0 -14,3 -18,8 -5,4 -8,11 -8,18 0,7 3,14 8,19 4,4 11,7 18,7 7,0 14,-3 19,-7 4,-5 7,-12 7,-19 0,-7 -3,-14 -7,-18z"/>
        <path fill="#CC6F3C" d="M129 81c-10,0 -19,4 -26,12 -2,2 -5,3 -8,3l-5 0 0 13c3,0 4,0 5,2 1,1 2,5 4,9 0,1 1,1 2,1 1,6 4,11 8,15 5,5 12,8 20,8 8,0 15,-3 20,-8 6,-6 9,-13 9,-21l0 0c2,0 5,-2 5,-5 0,0 0,-1 0,-1l0 0 -1 0 0 0c0,-5 3,-7 4,-7 2,0 3,-1 3,-3 0,-2 0,-4 0,-6 0,-1 -1,-3 -3,-3 -2,0 -4,0 -6,0 -5,0 -14,-5 -15,-5 -5,-2 -10,-4 -16,-4zm-19 16c5,-5 12,-8 19,-8 7,0 14,3 18,8 5,4 8,11 8,18 0,7 -3,14 -8,19 -4,4 -11,7 -18,7 -7,0 -14,-3 -19,-7 -4,-5 -7,-12 -7,-19 0,-7 3,-14 7,-18z"/>
        <path class="glass" fill-opacity="0.5" fill="#5B5B5B" d="M110 97c5,-5 12,-8 19,-8 7,0 14,3 18,8 5,4 8,11 8,18 0,7 -3,14 -8,19 -4,4 -11,7 -18,7 -7,0 -14,-3 -19,-7 -4,-5 -7,-12 -7,-19 0,-7 3,-14 7,-18zm-40 0c-5,-5 -12,-8 -19,-8 -7,0 -14,3 -18,8 -5,4 -8,11 -8,18 0,7 3,14 8,19 4,4 11,7 18,7 7,0 14,-3 19,-7 4,-5 7,-12 7,-19 0,-7 -3,-14 -7,-18z"/>
    </g>
</svg>