<svg viewBox="0 0 180 180">
    <g id="g_old">
        <path fill="#4D897C" d="M90 90l-6 0c-1,0 -2,-1 -2,-2 0,0 0,0 0,0l0 0c0,0 0,0 0,0 -3,-10 -12,-16 -31,-16l-27 0c-16,0 -17,7 -17,17l0 24c0,7 7,15 13,18 4,2 8,4 12,4l20 0c8,0 15,-4 20,-9 3,-4 6,-9 7,-14l1 0c0,0 0,-1 0,-1 0,-1 0,-1 0,-1 2,-8 6,-13 10,-13l0 -7zm-61 -12l21 0c18,0 27,8 27,18l0 6c0,12 -10,29 -26,29l-14 0c-10,0 -21,-11 -21,-18l0 -23c0,-7 6,-12 13,-12z"/>
        <path fill="#4D897C" d="M90 90l6 0c1,0 2,-1 2,-2 0,0 0,0 0,0l0 0c0,0 0,0 0,0 3,-10 12,-16 31,-16l27 0c16,0 17,7 17,17l0 24c0,7 -7,15 -13,18 -4,2 -8,4 -12,4l-20 0c-8,0 -15,-4 -20,-9 -3,-4 -6,-9 -7,-14l-1 0c0,0 0,-1 0,-1 0,-1 0,-1 0,-1 -2,-8 -6,-13 -10,-13l0 -7zm61 -12l-21 0c-18,0 -27,8 -27,18l0 6c0,12 10,29 26,29l14 0c10,0 21,-11 21,-18l0 -23c0,-7 -6,-12 -13,-12z"/>
        <path class="glass" fill-opacity="0.5" fill="#5B5B5B" d="M151 78l-21 0c-18,0 -27,8 -27,18l0 6c0,12 10,29 26,29l14 0c10,0 21,-11 21,-18l0 -23c0,-7 -6,-12 -13,-12zm-122 0l21 0c18,0 27,8 27,18l0 6c0,12 -10,29 -26,29l-14 0c-10,0 -21,-11 -21,-18l0 -23c0,-7 6,-12 13,-12z"/>
    </g>
</svg>