<svg viewBox="0 0 280 280">
    <g id="c_hoodie">
        <path class="tinted" fill="#545454" d="M264 280l0 -15c0,-36 -24,-68 -56,-80 -1,-13 -17,-20 -39,-23l0 22c0,16 -13,29 -30,29l0 0c-16,0 -29,-13 -29,-29l0 -22c-22,3 -38,10 -39,23 -32,13 -55,44 -55,80l0 15 248 0z"/>
        <path fill="#ffffff" d="M103 212l0 49c0,2 -2,4 -5,4 -2,0 -4,-2 -4,-4l0 -54c2,2 5,3 9,5z"/>
        <path fill="#ffffff" d="M186 217l0 40c0,2 -2,4 -5,4 -2,0 -4,-2 -4,-4l0 -35c3,-2 6,-3 9,-5z"/>
        <path fill="#000000" fill-opacity="0.4" d="M81 175c-4,2 -9,4 -14,7 10,22 36,33 69,37l0 0c-31,-5 -55,-25 -55,-42 0,-1 0,-1 0,-2z"/>
        <path fill="#000000" fill-opacity="0.4" d="M222 192c-4,-3 -9,-5 -14,-7 0,0 0,1 0,2 0,17 -24,37 -55,42l0 0c33,-4 59,-15 69,-37z"/>
    </g>
</svg>