<svg id="eyebrows" width="360px" height="360px" viewBox="0 0 360 360">
    <g id="eb_sad">
        <path fill="#000000" fill-opacity="0.7" fill-rule="nonzero" d="M125 129c-2,-1 -2,-2 -2,-4 1,-1 3,-2 4,-1 0,0 1,0 1,1 6,2 12,2 17,0 5,-2 9,-6 12,-13 0,0 0,-1 1,-1 0,-2 2,-2 3,-2 2,1 2,2 2,4 -1,0 -1,1 -1,2 -4,7 -9,12 -15,15 -6,3 -14,3 -21,0 0,-1 -1,-1 -1,-1z"/>
        <path fill="#000000" fill-opacity="0.7" fill-rule="nonzero" d="M234 129c2,-1 2,-2 1,-4 0,-1 -2,-2 -3,-1 -1,0 -1,0 -1,1 -6,2 -12,2 -17,0 -5,-2 -9,-6 -12,-13 0,0 -1,-1 -1,-1 -1,-2 -2,-2 -3,-2 -2,1 -2,2 -2,4 0,0 1,1 1,2 4,7 9,12 15,15 6,3 13,3 21,0 0,-1 1,-1 1,-1z"/>
    </g>
</svg>