<svg viewBox="0 0 280 280">
    <g id="e_squint">
        <path fill="#FEFEFE" d="M148 159c-6,0 -13,1 -17,1 0,-1 0,-2 0,-3 0,-9 7,-16 17,-16 9,0 16,7 16,16 0,1 0,2 0,3 -3,0 -11,-1 -16,-1z"/>
        <path fill="#4D4D4D" d="M148 159c-2,0 -3,0 -4,0 -2,-1 -4,-3 -4,-6 0,-3 3,-6 8,-6 4,0 7,3 7,6 0,3 -1,5 -3,6 -2,0 -3,0 -4,0z"/>
        <path fill="#FEFEFE" d="M212 159c-5,0 -13,1 -16,1 0,-1 0,-2 0,-3 0,-9 7,-16 16,-16 10,0 17,7 17,16 0,1 0,2 0,3 -4,0 -11,-1 -17,-1z"/>
        <path fill="#4D4D4D" d="M212 159c-1,0 -2,0 -4,0 -2,-1 -3,-3 -3,-6 0,-3 3,-6 7,-6 4,0 8,3 8,6 0,3 -2,5 -4,6 -1,0 -2,0 -4,0z"/>
    </g>
</svg>