<svg viewBox="0 0 140 140">
    <g id="t_front">
        <path fill="#000000" fill-opacity="0.7" d="M40 53l0 3 0 0c2,-3 4,-4 4,-5 -1,0 -3,1 -4,2zm49 27c0,0 1,1 3,1 1,0 2,0 4,0 0,0 0,0 0,0 4,0 10,-1 14,-6 0,0 -1,1 -1,1 0,1 0,1 0,2 0,1 0,1 -1,2 0,1 -1,3 -2,4 -1,2 -2,3 -3,4 0,0 0,0 1,-1 0,-1 0,-1 0,-2 0,0 0,0 0,0 0,-1 0,-1 -1,-2 -1,0 -1,0 -1,0 0,0 -1,0 -1,0 -1,0 -2,0 -3,1 -1,1 -2,2 -2,3 0,0 0,0 0,1 0,0 0,0 0,0 1,0 1,0 1,0 0,0 0,0 0,0 0,0 1,0 1,0 0,0 0,-1 1,-1 0,0 0,-1 0,-1 0,0 0,1 0,1 0,0 0,1 0,1 0,1 -1,2 -1,2 -1,1 -1,3 -2,4 -2,1 -3,3 -5,4 0,-1 0,-2 1,-3 0,-2 1,-4 1,-6 0,0 0,0 0,0 0,-3 -1,-6 -4,-9zm19 5c2,-3 3,-6 3,-10 0,-1 0,-2 0,-3 0,-1 -1,-2 -1,-3 0,0 0,0 0,0 1,0 1,0 1,0 0,0 0,0 0,0 2,0 6,0 9,3 0,0 0,-1 0,-1 0,0 0,0 0,0 -1,0 -3,1 -4,3 0,1 0,1 0,1l0 0c0,1 0,1 1,2 0,0 0,0 0,0 0,0 0,0 1,0 0,0 1,0 2,-1 0,0 1,0 1,-1 0,-1 1,-1 1,-2 0,-1 0,-2 0,-3l0 0c0,-3 -1,-6 -5,-8 0,0 1,0 1,0 2,0 6,0 9,2 2,1 3,2 4,4 1,1 2,4 2,6 0,1 0,1 0,1 0,-1 -1,-2 -2,-3 0,-1 -2,-2 -3,-2 0,0 -1,0 -1,0 0,0 0,0 -1,1 -1,0 -2,1 -2,3 0,0 0,0 0,0 0,2 1,4 1,7 0,0 0,0 0,0 0,0 0,1 0,2 0,1 -1,2 -1,3 0,0 0,-1 0,-1 0,0 0,-1 0,-1 0,-1 0,-1 0,-2 0,0 0,0 -1,-1 0,0 0,-1 0,-1 -1,0 -1,0 -1,0 -1,0 -1,0 -1,0 -1,0 -2,0 -2,2 -1,1 -1,2 -1,4 0,1 0,1 0,2 0,0 0,-1 0,-1 -1,-1 -1,-2 -2,-3 -1,0 -2,-1 -3,-1 0,0 0,0 -1,0 0,0 -1,1 -1,2 -1,1 -1,2 -1,3 0,2 0,4 1,5 0,2 1,4 2,5 0,0 0,0 -1,0 0,-1 0,-1 -1,-1 0,-1 -1,-1 -1,-1 -1,-1 -2,-2 -3,-3 -1,-2 -2,-3 -2,-4 0,-1 1,-2 3,-4zm-30 -18c0,0 0,1 0,1 0,1 0,1 0,2 0,1 0,2 0,3 1,1 1,2 2,3 0,0 1,0 1,0 0,0 0,0 1,0 1,0 3,-1 5,-2 1,-2 3,-3 5,-4 3,-2 12,-4 18,-4 1,0 2,0 3,0 1,0 2,0 3,0 -1,0 -4,1 -7,2 -3,1 -6,3 -8,6 0,0 0,-1 0,-1 0,0 0,0 0,0 0,-1 0,-3 -2,-3 0,0 0,0 0,0 -1,0 -2,0 -2,1 -1,1 -1,1 -1,2l0 0c0,1 0,2 2,3 0,0 1,0 1,0 1,0 1,0 2,0 1,0 3,0 4,-1 2,0 3,-1 4,-1 -1,0 -1,0 -1,0 0,1 -1,1 -1,1 0,1 -1,1 -1,2 -1,0 -3,1 -5,2 -1,0 -3,1 -6,1 -1,0 -2,0 -3,-1 -1,0 -2,0 -3,0 0,0 0,0 1,0 0,0 0,0 1,-1 0,0 1,0 1,-1 1,0 1,-1 1,-1 0,-1 0,-1 0,-1 0,-1 0,-1 -1,-1 0,0 -1,0 -1,0 -1,0 -1,0 -2,0 0,0 -1,0 -1,1 -1,0 -1,2 -1,3 0,0 0,0 0,0 0,1 0,3 0,4 1,1 1,3 2,5 0,0 0,0 0,0 -1,-1 -1,-1 -2,-1 0,0 -1,0 -2,-1 0,0 -1,0 -2,-1 -1,-1 -3,-2 -4,-4 -1,-2 -2,-4 -2,-7 0,-1 0,-2 0,-3 0,-1 1,-2 1,-3zm23 -7l-1 0 0 -1c-1,-1 -1,-2 -2,-3 0,0 -1,-1 -1,-2 -1,0 -1,-1 -2,-1 0,0 0,0 0,-1 0,0 0,0 0,0 0,0 0,1 0,1 0,2 -1,4 -2,5 -1,2 -3,3 -5,3 0,0 0,0 0,0 -2,0 -3,0 -3,-1 -1,-1 -2,-2 -2,-3l0 0c0,-1 1,-2 2,-2 0,0 0,0 0,0 1,0 2,1 2,1 1,0 1,1 1,1 0,-2 -2,-3 -3,-5 -1,-1 -3,-2 -4,-3 -1,-1 -1,-1 -2,-2 -1,0 -1,-1 -2,-1 0,0 0,0 0,0 -1,0 -1,-1 -1,-1 5,6 7,12 7,18 0,3 -1,5 -1,7 0,2 -1,4 -1,4 1,-1 2,-2 3,-3 0,-1 1,-2 1,-2 0,-1 0,-1 1,-1 0,-1 0,-1 0,-1 0,0 0,-1 0,-1 0,0 0,0 0,0 -1,0 -1,0 -1,0 0,0 0,-1 0,-1l0 0c0,0 0,0 0,0 0,-1 0,-1 0,-1 1,0 1,0 1,0 0,0 1,0 1,0 1,1 1,1 1,1 1,0 1,1 1,1 0,0 0,0 0,0 0,1 0,1 -1,2 0,0 0,1 0,1 -1,1 -1,1 -1,1 0,1 0,1 0,1 0,0 -1,0 -1,0 0,0 1,0 1,0 0,0 1,-1 2,-1 0,-1 1,-1 2,-2 1,0 2,-1 2,-1 1,-1 1,-1 1,-1 0,0 0,0 1,-1 0,0 0,-1 0,-2 0,0 0,-1 1,-1 0,-1 1,-1 2,-1 0,0 0,0 0,0 1,0 2,0 3,1 1,0 1,1 2,2 -1,-2 -2,-3 -2,-4l0 0zm-2 6c-1,0 -1,0 -1,0 0,0 0,0 0,0 -1,0 -1,0 -1,0 0,0 0,0 -1,0 0,-1 0,-1 0,-1 0,0 0,-1 0,-1 0,0 1,0 1,-1 0,-1 1,-1 2,-1 0,0 0,0 0,0 0,0 0,0 0,0 0,0 1,0 1,1 0,0 0,0 0,0 0,1 0,1 0,1 0,0 0,1 0,1 -1,0 -1,1 -1,1zm34 -3c-1,0 -2,0 -3,-1 1,1 2,2 3,3l0 0c0,0 0,0 0,0 0,-1 0,-1 0,-2zm-19 -3c-2,0 -4,0 -6,0l-6 0c1,1 2,3 2,4 1,0 1,0 2,0 1,0 2,0 4,0 1,0 1,0 2,0 1,0 2,0 2,0 0,0 0,0 0,0 0,0 -1,0 -1,-1 0,0 -1,-1 -1,-1 0,0 0,-1 1,-1 0,-1 0,-1 1,-1zm-14 -4l0 -3c-1,-1 -3,-2 -4,-2 0,1 2,2 4,5l0 0zm-49 24c0,0 -1,1 -3,1 -1,0 -2,0 -4,0 0,0 0,0 0,0 -4,0 -10,-1 -14,-6 0,0 1,1 1,1 0,1 0,1 0,2 0,1 0,1 1,2 0,1 1,3 2,4 1,2 2,3 3,4 0,0 0,0 -1,-1 0,-1 0,-1 0,-2 0,0 0,0 0,0 0,-1 0,-1 1,-2 1,0 1,0 1,0 0,0 1,0 1,0 1,0 2,0 3,1 1,1 2,2 2,3 0,0 0,0 0,1 0,0 0,0 0,0 -1,0 -1,0 -1,0 0,0 0,0 0,0 0,0 -1,0 -1,0 0,0 0,-1 -1,-1 0,0 0,-1 0,-1 0,0 0,1 0,1 0,0 0,1 0,1 0,1 1,2 1,2 1,1 1,3 2,4 2,1 3,3 5,4 0,-1 0,-2 -1,-3 0,-2 -1,-4 -1,-6 0,0 0,0 0,0 0,-3 1,-6 4,-9zm-19 5c-2,-3 -3,-6 -3,-10 0,-1 0,-2 0,-3 0,-1 1,-2 1,-3 0,0 0,0 0,0 -1,0 -1,0 -1,0 0,0 0,0 0,0 -2,0 -6,0 -9,3 0,0 0,-1 0,-1 0,0 0,0 0,0 1,0 3,1 4,3 0,1 0,1 0,1l0 0c0,1 0,1 -1,2 0,0 0,0 0,0 0,0 0,0 -1,0 0,0 -1,0 -2,-1 0,0 -1,0 -1,-1 0,-1 -1,-1 -1,-2 0,-1 0,-2 0,-3l0 0c0,-3 1,-6 5,-8 0,0 -1,0 -1,0 -2,0 -6,0 -9,2 -2,1 -3,2 -4,4 -1,1 -2,4 -2,6 0,1 0,1 0,1 0,-1 1,-2 2,-3 0,-1 2,-2 3,-2 0,0 1,0 1,0 0,0 0,0 1,1 1,0 2,1 2,3 0,0 0,0 0,0 0,2 -1,4 -1,7 0,0 0,0 0,0 0,0 0,1 0,2 0,1 1,2 1,3 0,0 0,-1 0,-1 0,0 0,-1 0,-1 0,-1 0,-1 0,-2 0,0 0,0 1,-1 0,0 0,-1 0,-1 1,0 1,0 1,0 1,0 1,0 1,0 1,0 2,0 2,2 1,1 1,2 1,4 0,1 0,1 0,2 0,0 0,-1 0,-1 1,-1 1,-2 2,-3 1,0 2,-1 3,-1 0,0 0,0 1,0 0,0 1,1 1,2 1,1 1,2 1,3 0,2 0,4 -1,5 0,2 -1,4 -2,5 0,0 0,0 1,0 0,-1 0,-1 1,-1 0,-1 1,-1 1,-1 1,-1 2,-2 3,-3 1,-2 2,-3 2,-4 0,-1 -1,-2 -3,-4zm30 -18c0,0 0,1 0,1 0,1 0,1 0,2 0,1 0,2 0,3 -1,1 -1,2 -2,3 0,0 -1,0 -1,0 0,0 0,0 -1,0 -1,0 -3,-1 -5,-2 -1,-2 -3,-3 -5,-4 -3,-2 -12,-4 -18,-4 -1,0 -2,0 -3,0 -1,0 -2,0 -3,0 1,0 4,1 7,2 3,1 6,3 8,6 0,0 0,-1 0,-1 0,0 0,0 0,0 0,-1 0,-3 2,-3 0,0 0,0 0,0 1,0 2,0 2,1 1,1 1,1 1,2l0 0c0,1 0,2 -2,3 0,0 -1,0 -1,0 -1,0 -1,0 -2,0 -1,0 -3,0 -4,-1 -2,0 -3,-1 -4,-1 1,0 1,0 1,0 0,1 1,1 1,1 0,1 1,1 1,2 1,0 3,1 5,2 1,0 3,1 6,1 1,0 2,0 3,-1 1,0 2,0 3,0 0,0 0,0 -1,0 0,0 0,0 -1,-1 0,0 -1,0 -1,-1 -1,0 -1,-1 -1,-1 0,-1 0,-1 0,-1 0,-1 0,-1 1,-1 0,0 1,0 1,0 1,0 1,0 2,0 0,0 1,0 1,1 1,0 1,2 1,3 0,0 0,0 0,0 0,1 0,3 0,4 -1,1 -1,3 -2,5 0,0 0,0 0,0 1,-1 1,-1 2,-1 0,0 1,0 2,-1 0,0 1,0 2,-1 1,-1 3,-2 4,-4 1,-2 2,-4 2,-7 0,-1 0,-2 0,-3 0,-1 -1,-2 -1,-3zm-22 -8l0 1 -1 0 0 0c0,1 -1,2 -2,4 1,-1 1,-2 2,-2 1,-1 2,-1 3,-1 0,0 0,0 0,0 1,0 2,0 2,1 1,0 1,1 1,1 0,1 0,2 0,2 1,1 1,1 1,1 0,0 0,0 1,1 0,0 1,1 2,1 1,1 2,1 2,2 1,0 2,1 2,1 0,0 1,0 1,0 0,0 -1,0 -1,0 0,0 0,0 0,-1 0,0 0,0 -1,-1 0,0 0,-1 0,-1 -1,-1 -1,-1 -1,-2 0,0 0,0 0,0 0,0 0,-1 1,-1 0,0 0,0 1,-1 0,0 1,0 1,0 0,0 0,0 1,0 0,0 0,0 0,1 0,0 0,0 0,0l0 0c0,0 0,1 0,1 0,0 0,0 -1,0 0,0 0,0 0,0 0,0 0,1 0,1 0,0 0,0 0,1 1,0 1,0 1,1 0,0 1,1 1,2 1,1 2,2 3,3 0,0 -1,-2 -1,-4 0,-2 -1,-4 -1,-7 0,-6 2,-12 7,-18 0,0 0,1 -1,1 0,0 0,0 0,0 -1,0 -1,1 -2,1 -1,1 -1,1 -2,2 -1,1 -3,2 -4,3 -1,2 -3,3 -3,5 0,0 0,-1 1,-1 0,0 1,-1 2,-1 0,0 0,0 0,0 1,0 2,1 2,2l0 0c0,1 -1,2 -2,3 0,1 -1,1 -3,1 0,0 0,0 0,0 -2,0 -4,-1 -5,-3 -1,-1 -2,-3 -2,-5 0,0 0,-1 0,-1 0,0 0,0 0,0 0,1 0,1 0,1 -1,0 -1,1 -2,1 0,1 -1,2 -1,2 -1,1 -1,2 -2,3zm1 7c1,0 1,0 1,0l0 0c1,0 1,0 1,0 0,0 0,0 1,0 0,-1 0,-1 0,-1 0,0 0,-1 0,-1 0,0 -1,0 -1,-1 0,-1 -1,-1 -2,-1 0,0 0,0 0,0 0,0 0,0 0,0 0,0 -1,0 -1,1 0,0 0,0 0,0 0,1 0,1 0,1 0,0 0,1 0,1 1,0 1,1 1,1zm-3 -6l-6 0c-2,0 -4,0 -6,0 1,0 1,0 1,1 1,0 1,1 1,1 0,0 -1,1 -1,1 0,1 -1,1 -1,1 0,0 0,0 0,0 0,0 1,0 2,0 1,0 1,0 2,0 2,0 3,0 4,0 1,0 1,0 2,0 0,-1 1,-3 2,-4zm-28 2c-1,1 -2,1 -3,1 0,1 0,1 0,2 0,0 0,0 0,0 1,-1 2,-2 3,-3z"/>
    </g>
</svg>