<svg viewBox="0 0 150 150">
    <g id="t_throat">
        <path fill="#000000" fill-opacity="0.7" fill-rule="nonzero" d="M10 76c0,-1 1,-1 2,-1 0,0 1,1 1,2 -1,1 -3,2 -4,1 0,1 0,1 0,1 4,3 6,6 7,7 0,0 1,0 2,-1 1,0 3,0 4,0l0 0c3,0 6,1 7,5 0,0 0,1 0,1l0 0c0,2 -1,3 -2,4 -1,0 -1,0 -2,0 -1,1 -1,1 -2,1 0,0 -1,0 -1,0 1,1 3,2 6,3 2,2 7,3 13,5 5,1 9,4 12,7 3,4 5,7 6,9 -1,-4 -2,-8 -3,-11 -1,0 -1,0 -1,0 0,-1 0,-1 0,-2 -2,-4 -4,-7 -6,-10 -3,-4 -5,-6 -6,-8 -1,-1 -1,-1 -1,-1 0,1 1,1 1,2 0,1 0,1 0,2 0,1 -1,2 -1,3 -1,1 -2,1 -3,1 0,0 0,0 0,0 -1,-1 -3,-2 -4,-3 -1,-1 -2,-3 -2,-5 0,0 0,-1 0,-1 0,-3 2,-5 4,-6 2,-2 4,-2 5,-2 -5,-11 11,-11 12,2 3,-20 23,-31 23,-10 0,-21 20,-10 23,10 1,-13 17,-13 12,-2 1,0 3,0 5,2 2,1 4,3 4,6 0,0 0,1 0,1 0,2 -1,4 -2,5 -1,1 -3,2 -4,3 0,0 0,0 0,0 -1,0 -2,0 -3,-1 0,-1 -1,-2 -1,-3 0,-1 0,-1 0,-2 0,-1 1,-1 1,-2 0,0 0,0 -1,1 -1,2 -3,4 -6,8 -2,3 -4,6 -6,10 0,1 0,1 0,2l-1 0c-1,3 -2,7 -3,11 1,-2 3,-5 6,-9 3,-3 7,-6 12,-7 6,-2 11,-3 13,-5 3,-1 5,-2 6,-3 0,0 -1,0 -1,0 -1,0 -1,0 -2,-1 -1,0 -1,0 -2,0 -1,-1 -2,-2 -2,-4l0 0c0,0 0,-1 0,-1 1,-4 4,-5 7,-5l0 0c1,0 3,0 4,0 1,1 2,1 2,1 1,-1 3,-4 7,-7 0,0 0,0 0,-1 -1,1 -3,0 -4,-1 0,-1 1,-2 1,-2 1,0 2,0 2,1 2,-2 3,-5 1,-8 -1,-4 -4,-4 -4,-4 0,11 -17,13 -24,5 -2,-2 -3,-5 -2,-7 3,-2 4,2 5,4 1,-18 -10,-24 -10,-24 3,7 4,18 -5,21 -5,2 -12,-5 -4,-4 -4,-4 -12,-3 -19,-2 1,-1 1,-1 2,-2 0,0 0,0 0,0 0,0 0,0 1,-1 2,-1 6,-1 9,-1 0,0 1,0 1,1 1,0 1,0 1,0 0,0 0,0 -1,-1 0,0 0,0 -1,0 -3,-1 -5,-3 -8,-5 2,-1 4,-2 7,-2 0,-1 1,-1 2,-1 1,0 3,1 4,1 3,2 4,4 6,5 3,-6 2,-16 -2,-21 1,4 -2,8 -6,9 -2,1 -4,2 -7,1 -1,0 -2,-1 -3,-2 0,-1 0,-2 0,-3 1,-3 1,-7 0,-11 -1,1 -2,1 -3,1 0,0 0,1 0,1 0,2 -1,4 -1,5 -1,2 -3,4 -4,6 -1,1 -1,2 -2,3 -1,-1 -2,-2 -2,-3 -2,-1 -3,-3 -4,-6 0,-1 -1,-3 -1,-4 0,-1 -1,-2 -1,-2 -1,0 -2,0 -3,-1 0,4 0,8 0,11 0,1 1,2 1,3 -1,1 -2,2 -3,2 -3,1 -5,0 -8,-1 -3,-1 -6,-5 -5,-9 -4,5 -6,15 -2,21 1,-1 3,-3 6,-5 1,0 2,-1 4,-1 1,0 1,0 2,1 3,0 5,1 7,2 -3,2 -6,4 -9,5 0,0 0,0 -1,0 0,1 0,1 -1,1 1,0 1,0 2,0 0,-1 0,-1 1,-1 3,0 6,0 9,1 0,1 1,1 1,1 0,0 0,0 0,0 1,1 1,1 2,2 -8,-1 -15,-2 -19,2 8,-1 1,6 -4,4 -9,-3 -8,-14 -5,-21 0,0 -11,6 -10,24 1,-2 2,-6 5,-4 1,2 0,5 -2,7 -7,8 -24,6 -24,-5 0,0 -3,0 -4,4 -2,3 -1,6 1,8z"/>
    </g>
</svg>