<svg viewBox="0 0 140 140">
    <g id="t_tribal2">
        <path fill="#000000" fill-opacity="0.7" fill-rule="nonzero" d="M122 78c0,1 -1,2 -2,2 -2,2 -3,2 -4,3 -2,0 -3,0 -4,-1 -2,-2 -1,-4 -1,-4 0,0 1,-2 2,-3 0,-1 1,-1 2,-1 1,-1 1,0 2,0 0,0 0,0 0,0 1,1 1,2 1,3 0,-1 1,-2 2,-5 0,-2 0,-5 0,-9 -1,-4 -1,-9 0,-12 0,-3 2,-5 2,-6 -1,0 -2,1 -3,2 -1,2 -3,5 -4,10 -1,5 -1,11 -5,20 -3,4 -6,10 -11,16 0,0 0,0 0,0 -2,2 -5,5 -7,8 2,-2 4,-4 8,-5 3,-2 7,-3 12,-4 2,-1 4,-2 6,-3 1,-1 3,-2 4,-4 0,0 0,0 0,0 6,-7 7,-19 7,-23 0,2 -1,4 -2,7 -1,3 -3,7 -5,9zm-104 0c0,1 1,2 2,2 2,2 3,2 4,3 2,0 3,0 4,-1 2,-2 1,-4 1,-4 0,0 -1,-2 -2,-3 0,-1 -1,-1 -2,-1 -1,-1 -1,0 -2,0 0,0 0,0 0,0 -1,1 -1,2 -1,3 0,-1 -1,-2 -2,-5 0,-2 0,-5 0,-9 1,-4 1,-9 0,-12 0,-3 -1,-5 -2,-6 1,0 2,1 3,2 1,2 3,5 4,10 1,5 1,11 5,20 3,4 6,10 11,16 0,0 0,0 0,0 2,2 5,5 7,8 -2,-2 -4,-4 -8,-5 -3,-2 -7,-3 -12,-4 -2,-1 -4,-2 -6,-3 -1,-1 -3,-2 -4,-4 0,0 0,0 0,0 -6,-7 -7,-19 -7,-23 0,2 1,4 2,7 1,3 3,7 5,9z"/>
    </g>
</svg>