<svg id="clothes" width="360px" height="360px" viewBox="0 0 360 360">
    <g id="c_overall">
        <path fill="#e0e0e0" d="M304 360l0 -15c0,-44 -34,-80 -77,-85 -2,24 -22,43 -46,43 -25,0 -45,-19 -47,-43l0 0c-44,4 -78,41 -78,85l0 15 248 0z"/>
        <path class="tinted" fill="#545454" d="M260 270c-10,-5 -21,-9 -32,-10l0 57 -96 0 0 -57c-11,2 -22,5 -32,11l0 89 160 0 0 -90z"/>
        <circle fill="#000000" fill-opacity="0.5" cx="118" cy="330" r="8"/>
        <circle fill="#000000" fill-opacity="0.5" cx="242" cy="330" r="8"/>
    </g>
</svg>