<svg viewBox="0 0 280 280">
    <g id="h_shorthairshaggy">
        <path fill="#000000" fill-opacity="0.2" d="M247 138l0 -8c0,-37 -30,-68 -68,-68l0 0c-38,0 -102,51 -68,68l20 11 -14 12c15,-3 23,-4 35,-13 9,-7 16,-17 22,-28 0,2 -1,3 -1,5l-4 11 9 -7c8,-5 14,-14 17,-24 3,5 6,9 10,13 3,3 6,6 9,8l10 9 -4 -12c0,-1 0,-1 -1,-2 9,5 17,12 28,25z"/>
        <path class="tinted" fill="#bb7748" d="M78 100c19,11 27,-19 35,-33 11,-17 41,-30 72,-13 23,-8 49,3 62,21 12,17 11,43 0,63 -3,-12 -21,-24 -34,-33 1,3 1,5 3,11 -9,-9 -17,-15 -22,-29 -1,10 -8,25 -18,31 3,-7 2,-15 0,-20 -5,13 -14,29 -26,39 -13,10 -29,16 -45,18 10,-5 17,-8 19,-14 -36,18 -56,-6 -46,-41z"/>
    </g>
</svg>