<svg viewBox="0 0 200 200">
    <g id="h_shorthairdreads">
        <path class="tinted" fill="#bb7748" fill-rule="nonzero" d="M30 91c0,0 0,-1 0,-1 -1,-2 0,-5 2,-6 1,-1 1,-2 1,-3 0,-1 -1,-1 -1,-2 -1,-3 1,-5 3,-6 1,0 2,0 3,0 0,-1 0,-1 1,-2 -2,0 -3,-2 -3,-5 1,-2 3,-4 5,-3 1,0 3,1 4,1 1,-1 2,-2 3,-4 0,0 0,-1 0,-2 0,-1 0,-3 0,-5 -1,-2 1,-4 3,-5 3,0 5,1 5,4 0,1 0,1 0,2 2,-2 4,-3 6,-4 0,-1 0,-3 0,-4 0,-3 2,-5 4,-5 3,0 5,2 5,5l0 0c1,0 3,-1 4,-1 0,-1 0,-1 0,-2 -1,-2 0,-4 2,-5 3,-1 5,0 6,3 0,0 0,1 0,1 2,-1 4,-1 7,-1 0,-1 0,-1 0,-2 0,-2 2,-4 4,-4 3,0 4,2 4,5 2,-1 4,-1 5,-1 1,-1 2,-3 4,-2 2,0 4,1 4,3 2,0 3,0 5,0 1,-1 2,-2 4,-2 2,0 3,2 4,4 1,0 2,0 4,1l0 0c0,0 0,0 1,0 2,-1 4,0 5,2 0,0 1,1 1,1 1,1 3,2 5,3 0,0 0,1 1,1 0,-1 1,-1 1,-2 2,-1 5,-1 7,1 1,1 1,4 -1,6 0,0 -1,1 -2,2 1,0 1,1 2,1 0,0 1,0 1,-1 2,0 4,-1 6,-2 2,-1 4,0 6,2 1,2 0,4 -2,5 1,1 3,1 4,2 1,0 3,-1 5,-1 2,-1 4,1 5,3 0,3 -1,5 -4,6 0,0 0,0 0,0 1,2 3,5 4,9 6,22 -1,23 -18,13 -10,-5 -26,-12 -50,-11 -13,0 -28,1 -46,8 -12,5 -18,9 -18,16 -1,13 -4,26 -4,29 -1,0 -3,0 -5,1 -1,-3 -1,-7 -2,-10 -1,-10 -2,-19 0,-26 0,-4 0,-7 0,-10zm134 16c-2,-6 4,-6 6,-4 3,3 4,7 5,11 1,3 1,21 -1,22 -4,0 -2,-9 -5,-18 -1,-6 -5,-11 -5,-11z"/>
    </g>
</svg>